<?xml version="1.0" encoding="utf-8"?>
<!-- Generator: Adobe Illustrator 23.0.1, SVG Export Plug-In . SVG Version: 6.00 Build 0)  -->
<svg version="1.1" id="Layer_1" xmlns="http://www.w3.org/2000/svg" xmlns:xlink="http://www.w3.org/1999/xlink" x="0px" y="0px"
	 viewBox="0 0 612 792" style="enable-background:new 0 0 612 792;" xml:space="preserve">
<style type="text/css">
	.st0{fill-rule:evenodd;clip-rule:evenodd;}
	.st1{fill-rule:evenodd;clip-rule:evenodd;fill:#F36C21;stroke:#1C1B1C;stroke-miterlimit:10;}
</style>
<path class="st0" d="M-419.9-509.18c0,22.32-5.33,41.47-16.13,57.46c-11.16,16.56-24.98,24.91-41.47,24.91l0,0v-48.1l0,0
	c6.34,0,11.59-3.67,15.84-11.02c3.96-6.77,5.9-14.47,5.9-23.26c0-8.93-1.94-16.63-5.83-23.18c-4.1-6.98-9.43-10.51-15.91-10.51l0,0
	v-48.1l0,0c16.49,0,30.31,8.14,41.4,24.55C-425.3-550.58-419.9-531.43-419.9-509.18z M-477.5-426.82c-16.49,0-30.31-8.35-41.4-24.91
	c-10.8-15.98-16.2-35.14-16.2-57.46c0-22.32,5.4-41.47,16.2-57.24c11.09-16.42,24.91-24.55,41.4-24.55v48.1
	c-6.7,0-12.02,3.46-16.06,10.37c-3.82,6.41-5.69,14.18-5.69,23.33c0,9,1.87,16.85,5.69,23.47c4.1,7.2,9.43,10.8,16.06,10.8V-426.82z
	"/>
<path class="st0" d="M-362.66-437.47c0,1.66-0.58,3.17-1.66,4.54c-1.08,1.37-2.23,2.09-3.53,2.09c-3.1,0-7.78,0.07-13.97,0.14
	c-6.19,0.07-10.8,0.14-13.9,0.14c-2.38,0-3.6-1.37-3.53-4.18l0.14-1.44c0.94-32.98,1.3-52.99,1.3-60.05v-38.52
	c0-2.38-0.36-3.6-1.22-3.6c-1.3,0-3.24,0.5-5.83,1.51c-2.59,1.08-4.61,1.66-5.98,1.66c-2.02,0-2.95-1.66-2.95-4.82
	c0-2.95-0.07-7.34-0.14-13.25c-0.07-5.83-0.07-10.3-0.07-13.32c0-1.73,0.79-3.1,2.38-3.89c9.5-5.26,16.99-12.38,22.39-21.31
	c1.08-1.8,2.02-2.66,2.81-2.66c0.14,0,0.5,0.07,1.15,0.22c2.45,0.65,6.12,1.8,10.87,3.24c2.59,0.43,6.41,1.22,11.38,2.38
	c0.86,0.29,1.3,1.22,1.3,2.81c0,0.5,0,1.44-0.14,2.74c-0.72,7.56-1.08,26.21-1.08,55.87c0,9.94,0.07,24.91,0.14,44.86
	C-362.74-462.38-362.66-447.41-362.66-437.47z"/>
<path class="st0" d="M-298.94-437.47c0,1.66-0.5,3.17-1.66,4.54c-1.08,1.37-2.23,2.09-3.53,2.09c-3.1,0-7.78,0.07-13.97,0.14
	c-6.19,0.07-10.8,0.14-13.9,0.14c-2.38,0-3.53-1.37-3.53-4.18l0.14-1.44c0.94-32.98,1.37-52.99,1.37-60.05v-38.52
	c0-2.38-0.43-3.6-1.3-3.6c-1.3,0-3.24,0.5-5.83,1.51c-2.59,1.08-4.61,1.66-5.9,1.66c-2.02,0-3.02-1.66-3.02-4.82
	c0-2.95-0.07-7.34-0.14-13.25c0-5.83-0.07-10.3-0.07-13.32c0-1.73,0.86-3.1,2.45-3.89c9.5-5.26,16.92-12.38,22.32-21.31
	c1.08-1.8,2.02-2.66,2.81-2.66c0.14,0,0.5,0.07,1.15,0.22c2.45,0.65,6.12,1.8,10.94,3.24c2.52,0.43,6.34,1.22,11.3,2.38
	c0.86,0.29,1.37,1.22,1.37,2.81c0,0.5-0.07,1.44-0.22,2.74c-0.72,7.56-1.08,26.21-1.08,55.87c0,9.94,0.07,24.91,0.14,44.86
	C-299.02-462.38-298.94-447.41-298.94-437.47z"/>
<path class="st0" d="M-235.22-437.47c0,1.66-0.5,3.17-1.58,4.54c-1.15,1.37-2.3,2.09-3.6,2.09c-3.1,0-7.78,0.07-13.9,0.14
	c-6.26,0.07-10.87,0.14-13.97,0.14c-2.38,0-3.53-1.37-3.46-4.18l0.07-1.44c0.94-32.98,1.37-52.99,1.37-60.05v-38.52
	c0-2.38-0.43-3.6-1.3-3.6c-1.3,0-3.24,0.5-5.83,1.51c-2.59,1.08-4.61,1.66-5.9,1.66c-2.02,0-3.02-1.66-3.02-4.82
	c0-2.95,0-7.34-0.07-13.25c-0.07-5.83-0.14-10.3-0.14-13.32c0-1.73,0.86-3.1,2.45-3.89c9.5-5.26,16.92-12.38,22.32-21.31
	c1.08-1.8,2.02-2.66,2.81-2.66c0.14,0,0.5,0.07,1.15,0.22c2.45,0.65,6.12,1.8,10.94,3.24c2.52,0.43,6.34,1.22,11.3,2.38
	c0.86,0.29,1.37,1.22,1.37,2.81c0,0.5-0.07,1.44-0.22,2.74c-0.72,7.56-1.08,26.21-1.08,55.87c0,9.94,0.07,24.91,0.14,44.86
	C-235.22-462.38-235.22-447.41-235.22-437.47z"/>
<path class="st0" d="M-78.98-485.06c0,38.66-17.78,57.96-53.35,57.96c-5.11,0-12.02-0.72-20.66-2.23
	c-11.23-1.87-17.14-4.18-17.71-6.84c-0.29-1.15-0.36-4.97-0.36-11.52c0-3.67,0.29-8.5,0.94-14.54c0.86-7.78,1.87-11.66,2.95-11.66
	c0.29,0,0.86,0.29,1.66,0.79c7.7,5.18,16.49,7.78,26.35,7.78c14.26,0,21.38-6.26,21.38-18.65c0-6.84-2.59-12.02-7.85-15.48
	c-4.1-2.74-8.93-4.18-14.62-4.18c-2.38,0-5.9,0.43-10.66,1.22c-4.75,0.72-8.28,1.15-10.66,1.15c-2.3,0-3.46-1.37-3.46-4.18
	c0-8.28,0.29-20.95,0.86-37.94c0.58-17.06,0.79-29.74,0.79-38.02c0-1.58,0.5-3.31,1.44-5.11c0.94-1.73,1.94-2.81,3.17-3.17
	c1.37-0.36,10.37-0.5,26.86-0.5c18.72,0,31.32,0.07,37.8,0.22c1.73,0.07,2.59,1.15,2.59,3.02c0,4.9-0.36,11.66-1.15,20.23
	c-1.01,10.94-2.16,16.49-3.46,16.49l-1.08-0.14c-14.62-1.73-23.69-2.66-27.29-2.66c-7.06,0-10.87,0.58-11.38,1.58
	c-1.08,2.59-1.66,7.49-1.66,14.62c0,1.15,0.14,2.02,0.5,2.66c1.58,0,4.1-0.22,7.63-0.72c3.24-0.36,5.83-0.58,7.63-0.58
	c11.95,0,21.96,4.25,29.88,12.82C-83.3-513.5-78.98-500.98-78.98-485.06z"/>
<path class="st0" d="M32.04-518.98c0,28.3-7.85,51.19-23.54,68.54c-8.42,9.29-18,15.91-28.66,19.94v-41.62
	c3.89-3.17,6.84-7.27,9-12.17c0.79-1.87,1.22-3.24,1.22-4.18c0-0.5-0.14-0.72-0.58-0.72c-0.29,0-1.08,0.29-2.23,1.01
	c-2.3,1.44-4.82,2.59-7.42,3.46v-27.22c4.39-0.07,8.06-1.8,11.02-5.04c3.31-3.67,4.97-8.57,4.97-14.47c0-6.62-1.44-12.24-4.18-16.85
	c-3.02-5.18-6.91-7.7-11.74-7.7h-0.07v-36.29c0.22,0,0.43,0,0.65,0c16.06,0,28.8,6.91,38.09,20.74
	C27.58-558.22,32.04-540.72,32.04-518.98z M-20.16-430.49c-7.99,2.95-16.56,4.39-25.85,4.39c-1.3,0-2.23-1.15-2.95-3.46
	c-4.61-15.05-6.91-24.77-6.91-29.3c0-2.74,1.51-4.18,4.61-4.18c13.46,0,23.83-3.02,31.1-9.07V-430.49L-20.16-430.49z M-20.16-484.7
	c-3.38,1.08-7.06,1.58-10.94,1.58c-11.23,0-20.52-4.46-27.65-13.46c-7.34-9.07-11.02-21.17-11.02-36.22
	c0-19.51,4.9-34.49,14.62-44.93c8.71-9.58,20.45-14.4,34.99-14.54v36.29c-10.66,0.07-15.98,7.56-15.98,22.61
	c0,6.12,1.51,11.23,4.39,15.34s6.62,6.12,11.09,6.12c0.22,0,0.36,0,0.5,0V-484.7z"/>
<path class="st0" d="M143.93-518.98c0,28.3-7.85,51.19-23.54,68.54c-8.42,9.29-18,15.91-28.66,19.94v-41.62
	c3.89-3.17,6.84-7.27,9-12.17c0.79-1.87,1.22-3.24,1.22-4.18c0-0.5-0.14-0.72-0.58-0.72c-0.29,0-1.08,0.29-2.23,1.01
	c-2.3,1.44-4.82,2.59-7.42,3.46v-27.22c4.39-0.07,8.06-1.8,11.02-5.04c3.31-3.67,4.97-8.57,4.97-14.47c0-6.62-1.44-12.24-4.18-16.85
	c-3.02-5.18-6.91-7.7-11.74-7.7h-0.07v-36.29c0.22,0,0.43,0,0.65,0c16.06,0,28.8,6.91,38.09,20.74
	C139.46-558.22,143.93-540.72,143.93-518.98z M91.73-430.49c-7.99,2.95-16.56,4.39-25.85,4.39c-1.3,0-2.23-1.15-2.95-3.46
	c-4.61-15.05-6.91-24.77-6.91-29.3c0-2.74,1.51-4.18,4.54-4.18c13.54,0,23.9-3.02,31.18-9.07V-430.49L91.73-430.49z M91.73-484.7
	c-3.46,1.08-7.06,1.58-10.94,1.58c-11.23,0-20.52-4.46-27.65-13.46c-7.34-9.07-11.02-21.17-11.02-36.22
	c0-19.51,4.9-34.49,14.62-44.93c8.71-9.58,20.45-14.4,34.99-14.54v36.29c-10.66,0.07-15.98,7.56-15.98,22.61
	c0,6.12,1.44,11.23,4.39,15.34c2.88,4.1,6.55,6.12,11.09,6.12c0.22,0,0.36,0,0.5,0V-484.7z"/>
<path class="st0" d="M304.34-460.01c0,1.3-0.79,2.16-2.38,2.59c-1.15,0.22-2.81,0.29-4.82,0.07c-2.95-0.22-4.18-0.36-3.74-0.36
	c-2.52,0-3.74,1.73-3.74,5.11c0,2.02,0.07,5.11,0.29,9.36c0.22,4.18,0.29,7.34,0.29,9.43c0,3.02-1.01,4.46-2.95,4.46
	c-22.25,0-33.98-0.29-35.14-1.08c-1.15-0.72-1.73-1.66-1.73-2.81c0-1.22,0.43-4.46,1.22-9.58c0.79-5.11,1.22-8.78,1.22-11.09
	c0-2.88-1.22-4.32-3.6-4.32c-2.02,0-4.46,0.07-7.34,0.14v-32.33c3.6-0.29,7.7-0.65,12.46-1.01c0.07-3.46,0.58-12.02,1.37-25.56
	c0.58-10.73,0.86-19.08,0.86-24.98c0-0.5-0.22-0.79-0.72-0.79c-0.58,0-1.15,0.5-1.73,1.66c-4.03,8.86-8.14,17.64-12.24,26.42v-50.04
	c1.66-3.6,3.38-7.42,5.18-11.52c1.58-3.96,4.1-9.43,7.56-16.27c0.94-1.51,1.87-2.23,2.88-2.23c1.58,0,6.34,1.51,14.33,4.61
	c8.06,3.17,13.54,4.75,16.42,4.75c2.09,0,3.1,1.73,3.1,5.26c0,3.38-0.29,8.5-0.86,15.26c-0.58,6.77-0.86,11.88-0.86,15.34v54.65
	c1.22,0,3.31-0.29,6.41-0.86c2.66-0.5,4.75-0.72,6.26-0.72c1.22,0,1.8,1.01,1.8,2.95c0,1.8-0.07,4.54-0.22,8.21
	c-0.14,3.6-0.22,6.34-0.22,8.28c0,1.87,0.07,4.75,0.29,8.5C304.27-464.76,304.34-461.95,304.34-460.01z M241.92-458.06
	c-3.38,0.07-7.42,0.22-12.1,0.36c-8.57,0.36-15.05,0.5-19.37,0.5c-5.18,0-7.7-2.66-7.7-8.14c0-2.81-0.07-6.91-0.14-12.38
	c-0.07-5.47-0.07-9.58-0.07-12.38c0-2.59,1.01-5.33,3.02-8.14c9.36-13.54,16.27-24.34,20.59-32.47c1.73-3.24,6.98-14.62,15.77-33.98
	v50.04c0,0.07-0.07,0.22-0.14,0.29c-4.97,10.3-9.79,18.58-14.47,24.77c2.38,0,7.27-0.29,14.62-0.79V-458.06z"/>
<path class="st0" d="M413.57-460.01c0,1.3-0.79,2.16-2.45,2.59c-1.15,0.22-2.74,0.29-4.82,0.07c-2.88-0.22-4.1-0.36-3.67-0.36
	c-2.52,0-3.74,1.73-3.74,5.11c0,2.02,0.07,5.11,0.29,9.36c0.22,4.18,0.29,7.34,0.29,9.43c0,3.02-1.01,4.46-3.02,4.46
	c-22.25,0-33.91-0.29-35.06-1.08c-1.15-0.72-1.8-1.66-1.8-2.81c0-1.22,0.43-4.46,1.22-9.58s1.22-8.78,1.22-11.09
	c0-2.88-1.15-4.32-3.6-4.32c-1.94,0-4.39,0.07-7.27,0.14v-32.33c3.53-0.29,7.7-0.65,12.46-1.01c0.07-3.46,0.58-12.02,1.37-25.56
	c0.5-10.73,0.79-19.08,0.79-24.98c0-0.5-0.22-0.79-0.65-0.79c-0.58,0-1.15,0.5-1.73,1.66c-4.1,8.86-8.14,17.64-12.24,26.42v-50.04
	c1.58-3.6,3.31-7.42,5.18-11.52c1.51-3.96,4.03-9.43,7.49-16.27c0.94-1.51,1.94-2.23,2.95-2.23c1.51,0,6.34,1.51,14.33,4.61
	c8.06,3.17,13.54,4.75,16.42,4.75c2.02,0,3.1,1.73,3.1,5.26c0,3.38-0.29,8.5-0.86,15.26c-0.58,6.77-0.86,11.88-0.86,15.34v54.65
	c1.22,0,3.31-0.29,6.34-0.86c2.74-0.5,4.82-0.72,6.34-0.72c1.22,0,1.8,1.01,1.8,2.95c0,1.8-0.07,4.54-0.22,8.21
	c-0.22,3.6-0.22,6.34-0.22,8.28c0,1.87,0.07,4.75,0.29,8.5C413.42-464.76,413.57-461.95,413.57-460.01z M351.14-458.06
	c-3.38,0.07-7.42,0.22-12.1,0.36c-8.57,0.36-15.05,0.5-19.37,0.5c-5.18,0-7.78-2.66-7.78-8.14c0-2.81,0-6.91-0.07-12.38
	c-0.07-5.47-0.07-9.58-0.07-12.38c0-2.59,1.01-5.33,2.95-8.14c9.43-13.54,16.27-24.34,20.59-32.47c1.8-3.24,7.06-14.62,15.84-33.98
	v50.04c-0.07,0.07-0.07,0.22-0.14,0.29c-4.97,10.3-9.79,18.58-14.54,24.77c2.45,0,7.34-0.29,14.69-0.79V-458.06z"/>
<path class="st0" d="M522.79-460.01c0,1.3-0.79,2.16-2.38,2.59c-1.15,0.22-2.81,0.29-4.82,0.07c-2.88-0.22-4.18-0.36-3.67-0.36
	c-2.52,0-3.82,1.73-3.82,5.11c0,2.02,0.14,5.11,0.36,9.36c0.14,4.18,0.22,7.34,0.22,9.43c0,3.02-0.94,4.46-2.95,4.46
	c-22.25,0-33.98-0.29-35.14-1.08c-1.15-0.72-1.73-1.66-1.73-2.81c0-1.22,0.43-4.46,1.22-9.58s1.22-8.78,1.22-11.09
	c0-2.88-1.22-4.32-3.6-4.32c-2.02,0-4.39,0.07-7.27,0.14v-32.33c3.53-0.29,7.7-0.65,12.38-1.01c0.14-3.46,0.58-12.02,1.37-25.56
	c0.58-10.73,0.86-19.08,0.86-24.98c0-0.5-0.22-0.79-0.65-0.79c-0.58,0-1.22,0.5-1.73,1.66c-4.1,8.86-8.21,17.64-12.24,26.42v-50.04
	c1.58-3.6,3.31-7.42,5.18-11.52c1.51-3.96,4.03-9.43,7.49-16.27c0.94-1.51,1.87-2.23,2.88-2.23c1.58,0,6.34,1.51,14.4,4.61
	c7.99,3.17,13.46,4.75,16.42,4.75c2.02,0,3.1,1.73,3.1,5.26c0,3.38-0.29,8.5-0.94,15.26c-0.5,6.77-0.86,11.88-0.86,15.34v54.65
	c1.22,0,3.38-0.29,6.41-0.86c2.74-0.5,4.82-0.72,6.26-0.72c1.22,0,1.87,1.01,1.87,2.95c0,1.8-0.07,4.54-0.29,8.21
	c-0.14,3.6-0.22,6.34-0.22,8.28c0,1.87,0.14,4.75,0.36,8.5S522.79-461.95,522.79-460.01z M460.44-458.06
	c-3.46,0.07-7.42,0.22-12.1,0.36c-8.64,0.36-15.12,0.5-19.37,0.5c-5.18,0-7.78-2.66-7.78-8.14c0-2.81,0-6.91-0.07-12.38
	c-0.07-5.47-0.14-9.58-0.14-12.38c0-2.59,1.08-5.33,3.02-8.14c9.43-13.54,16.27-24.34,20.59-32.47c1.73-3.24,7.06-14.62,15.84-33.98
	v50.04c-0.07,0.07-0.14,0.22-0.14,0.29c-4.97,10.3-9.79,18.58-14.54,24.77c2.38,0,7.27-0.29,14.69-0.79V-458.06z"/>
<path class="st0" d="M632.09-460.01c0,1.3-0.79,2.16-2.38,2.59c-1.15,0.22-2.81,0.29-4.82,0.07c-2.95-0.22-4.18-0.36-3.74-0.36
	c-2.45,0-3.74,1.73-3.74,5.11c0,2.02,0.14,5.11,0.29,9.36c0.22,4.18,0.29,7.34,0.29,9.43c0,3.02-1.01,4.46-2.95,4.46
	c-22.25,0-33.98-0.29-35.14-1.08c-1.15-0.72-1.73-1.66-1.73-2.81c0-1.22,0.43-4.46,1.22-9.58s1.22-8.78,1.22-11.09
	c0-2.88-1.22-4.32-3.6-4.32c-2.02,0-4.46,0.07-7.34,0.14v-32.33c3.6-0.29,7.7-0.65,12.46-1.01c0.14-3.46,0.58-12.02,1.37-25.56
	c0.58-10.73,0.86-19.08,0.86-24.98c0-0.5-0.22-0.79-0.72-0.79c-0.58,0-1.15,0.5-1.73,1.66c-4.03,8.86-8.14,17.64-12.24,26.42v-50.04
	c1.66-3.6,3.38-7.42,5.18-11.52c1.58-3.96,4.1-9.43,7.56-16.27c0.94-1.51,1.87-2.23,2.88-2.23c1.58,0,6.34,1.51,14.4,4.61
	c7.99,3.17,13.46,4.75,16.34,4.75c2.09,0,3.1,1.73,3.1,5.26c0,3.38-0.29,8.5-0.86,15.26c-0.58,6.77-0.86,11.88-0.86,15.34v54.65
	c1.22,0,3.31-0.29,6.41-0.86c2.66-0.5,4.82-0.72,6.26-0.72c1.22,0,1.8,1.01,1.8,2.95c0,1.8-0.07,4.54-0.22,8.21
	c-0.14,3.6-0.22,6.34-0.22,8.28c0,1.87,0.07,4.75,0.36,8.5C632.02-464.76,632.09-461.95,632.09-460.01z M569.66-458.06
	c-3.38,0.07-7.42,0.22-12.02,0.36c-8.64,0.36-15.12,0.5-19.37,0.5c-5.18,0-7.78-2.66-7.78-8.14c0-2.81-0.07-6.91-0.14-12.38
	c-0.07-5.47-0.07-9.58-0.07-12.38c0-2.59,1.01-5.33,3.02-8.14c9.36-13.54,16.27-24.34,20.59-32.47c1.73-3.24,6.98-14.62,15.77-33.98
	v50.04c0,0.07-0.07,0.22-0.07,0.29c-5.04,10.3-9.86,18.58-14.54,24.77c2.38,0,7.27-0.29,14.62-0.79V-458.06z"/>
<path class="st1" d="M598.21,285.64v31.82c-4.32,53.28-31.46,106.06-95.33,148.68l27.86-40.32c77.33-151.27,9-210.24-44.64-283.46
	v-7.85l9.65-41.83C543.35,133.43,592.16,207.95,598.21,285.64L598.21,285.64z M486.11,470.96c0.5-2.02,0.94-3.96,1.37-5.98
	c-0.43,0.43-0.94,0.86-1.37,1.37V470.96L486.11,470.96z M486.11,425.39c75.53-65.23,50.47-152.06,0-213.12v50.62
	c20.09,34.7,25.78,81.65,0,150.12V425.39z M486.11,134.51v7.85c-0.43-0.65-0.94-1.22-1.37-1.87L486.11,134.51L486.11,134.51z
	 M486.11,212.27v50.62c-11.95-20.59-28.94-36.86-47.45-50.62v-44.78C455.36,179.65,471.78,194.92,486.11,212.27L486.11,212.27z
	 M486.11,413v12.38c-0.79,0.72-1.66,1.44-2.45,2.09c-5.76,21.53-23.26,33.05-45,30.02v-21.6c7.34,2.3,14.62,0.94,23.04-2.95
	c2.74-3.17,5.98-10.8,4.18-17.14l-19.3-4.9l-7.92-2.3v-19.08c4.54,1.15,9.94,1.94,16.34,2.02l3.02-1.37
	c-6.55-14.04-13.32-22.1-19.37-26.21v-42.84c4.61,2.38,9.43,5.4,14.47,9.36c24.34,32.83,33.48,61.92,32.47,83.95
	C485.75,413.94,485.96,413.51,486.11,413L486.11,413z M486.11,466.36v4.61c-8.57,34.85-25.13,61.13-47.45,79.34V505.6
	C454.21,495.16,469.98,482.2,486.11,466.36L486.11,466.36z M438.66,291.76v-16.13c1.15,2.45,1.8,5.18,1.8,8.06
	C440.46,286.57,439.81,289.31,438.66,291.76z M386.39,283.62l8.14,11.09c-6.41,7.34-12.82,17.57-18.29,27.79v-23.98l5.4-7.49
	L386.39,283.62L386.39,283.62z M438.66,167.48v44.78c-10.51-7.85-21.46-14.83-32.26-21.46l10.51-37.15
	C424.12,157.62,431.39,162.3,438.66,167.48L438.66,167.48z M438.66,275.63v16.13c-3.1,6.62-9.86,11.23-17.71,11.23
	c-10.73,0-19.44-8.64-19.44-19.3c0-10.66,8.71-19.3,19.44-19.3C428.8,264.4,435.56,269,438.66,275.63L438.66,275.63z M438.66,321.13
	c-55.58-27.94-79.34,51.48-6.84,85.46l6.84,2.02v-19.08c-31.61-8.42-19.94-39.02,0-25.56V321.13L438.66,321.13z M438.66,435.9v21.6
	c-19.15-2.66-41.62-16.56-62.42-44.78v-48.1c14.76,25.06,29.95,50.4,53.06,66.31C432.47,433.31,435.56,434.89,438.66,435.9
	L438.66,435.9z M438.66,505.6v44.71c-17.57,14.33-38.74,23.62-62.42,28.22v-43.92C396.9,529.07,417.56,519.64,438.66,505.6z
	 M376.24,322.5c-3.67,6.7-6.91,13.46-9.65,19.44l-8.71-18.22l18.36-25.2V322.5L376.24,322.5z M376.24,364.62
	c-2.52-4.18-4.97-8.35-7.42-12.46l-14.04-31.18c-13.03-28.94-20.23-63-29.3-93.67l-7.06,0.58v89.28
	c5.54,10.66,11.74,21.17,18.65,31.61l15.26,23.11c7.49,15.98,15.55,29.52,23.9,40.82V364.62L376.24,364.62z M376.24,534.61v43.92
	c-17.93,3.46-37.22,4.25-57.53,2.38c-0.07,0-0.14,0-0.29-0.07v-39.6C337.86,541.81,357.01,539.87,376.24,534.61L376.24,534.61z
	 M318.42,490.84v-78.26c6.84-16.99,13.1-36.43,20.45-56.95l14.11,22.46C344.92,422.36,335.34,465.06,318.42,490.84z M318.42,227.89
	v89.28c-11.74-22.54-20.88-45.79-29.38-70.78v-16.13L318.42,227.89L318.42,227.89z M318.42,412.57v78.26
	c-7.92,12.17-17.5,20.52-29.38,23.54v-54C301.57,449.15,310.43,432.52,318.42,412.57L318.42,412.57z M318.42,541.24v39.6
	c-9.94-2.38-19.73-5.26-29.38-8.5v-33.77C298.98,540.01,308.7,540.95,318.42,541.24L318.42,541.24z M289.04,406.24v-81.79
	C297.18,349.43,296.32,380.82,289.04,406.24z M289.04,230.27v16.13c-1.73-5.18-3.46-10.37-5.11-15.7L289.04,230.27L289.04,230.27z
	 M289.04,324.44v81.79c-7.56,26.57-22.1,46.58-40.75,45.79v-35.06c19.3-5.62,34.06-20.23,24.62-43.7
	c-6.7,12.82-13.54,17.86-24.62,18.07v-40.39c3.96,1.87,8.71,3.53,14.33,4.82l3.24-0.72c-4.82-18.14-11.38-28.08-17.57-32.54v-39.96
	C269.17,287.08,282.28,303.49,289.04,324.44L289.04,324.44z M289.04,460.38v54c-11.3,2.95-24.77,0.94-40.75-7.49v-31.25
	C265.57,475.28,278.6,469.74,289.04,460.38L289.04,460.38z M289.04,538.57v33.77c-13.82-4.68-27.36-10.01-40.75-15.7V530
	C262.12,533.68,275.72,536.63,289.04,538.57z M248.29,282.54v39.96c-16.2-11.74-29.59,14.47,0,28.44v40.39
	c-3.53,0.07-7.49-0.36-12.02-1.15c-33.34-27.14-46.8-72.22-15.26-107.21C231.3,280.81,240.37,280.81,248.29,282.54L248.29,282.54z
	 M248.29,416.96v35.06c-13.46-0.58-29.02-11.95-45.65-39.46C214.02,420.06,232.67,421.43,248.29,416.96L248.29,416.96z
	 M248.29,475.64v31.25c-15.77-8.28-34.06-22.75-55.37-44.71l15.84,7.42C224.03,474.06,237.06,475.93,248.29,475.64L248.29,475.64z
	 M248.29,530c-33.41-8.93-68.54-22.25-106.63-36.79v20.3c36.86,11.23,71.28,28.22,106.63,43.13V530L248.29,530z M141.66,464.12
	c81.07-32.26,52.7-145.8,0-179.35v43.56c8.78,6.34,18.14,20.52,24.98,46.37l-4.61,1.01c-7.99-1.87-14.76-4.25-20.38-6.91v24.84
	c3.31,1.08,6.55,1.94,9.72,2.66l18.29-0.65c1.15,24.84-10.01,37.22-28.01,43.27V464.12z M141.66,284.77v43.56
	c-23.18-16.78-42.19,20.52,0,40.46v24.84c-21.24-7.06-44.42-21.89-58.68-40.68v-68.47C103.14,271.24,123.8,273.4,141.66,284.77
	L141.66,284.77z M141.66,438.92c-2.52,0.86-5.26,1.58-8.06,2.16c-4.46-17.35-26.5-46.51-50.62-62.71v27.5
	c12.74,10.15,24.91,29.88,28.87,37.66c-8.78,1.73-19.22,2.09-28.87,0.22v23.18c15.91,4.1,31.39,4.97,42.12,2.02l-1.87,23.76
	c-10.08-8.42-24.98-11.95-40.25-11.16v19.8c11.3,0.43,22.61,2.95,27.72,4.54c-6.55,10.44-16.92,21.38-27.72,26.64v21.31
	c20.52-8.78,40.46-26.93,52.49-42.12c2.09,0.58,4.1,1.15,6.19,1.8v-20.3c-0.43-0.22-0.86-0.36-1.3-0.5l-0.65-27.86
	c0.65-0.22,1.3-0.5,1.94-0.72V438.92L141.66,438.92z M82.98,250.36v-29.81c4.32-5.18,10.87-8.57,18.22-8.57
	c12.96,0,23.62,10.58,23.62,23.47s-10.66,23.4-23.62,23.4C93.85,258.85,87.3,255.54,82.98,250.36z M82.98,220.55v29.81
	c-3.38-4.1-5.4-9.29-5.4-14.9C77.58,229.76,79.6,224.58,82.98,220.55L82.98,220.55z M82.98,284.48v68.47
	c-14.47-19.15-19.66-42.41-3.89-65.74C80.39,286.28,81.68,285.35,82.98,284.48L82.98,284.48z M82.98,378.37v27.5
	c-10.58-8.5-21.67-10.3-28.8,6.91c-0.72,18.65,12.89,27.79,28.8,30.96v23.18c-30.24-7.78-62.06-27.14-65.81-53.64v-10.66v-0.07
	C28.26,358.28,56.84,360.73,82.98,378.37L82.98,378.37z M82.98,481.55v19.8c-17.78-0.65-35.42,4.03-28.08,26.21
	c8.06,9.65,18.29,9.72,28.08,4.97v21.31c-22.9,9.72-46.58,7.78-61.13-23.11C23.22,500.7,53.82,483.13,82.98,481.55L82.98,481.55z
	 M51.44,226.09c-8.35,0-15.26,6.84-15.26,15.12c0,8.35,6.91,15.19,15.26,15.19c8.42,0,15.26-6.84,15.26-15.19
	C66.71,232.93,59.87,226.09,51.44,226.09z"/>
<path class="st0" d="M-492.62-784.51c0.94-2.59,4.39-7.85,10.37-15.91c5.98-7.99,9.72-11.95,11.09-11.95l4.32,3.82l6.77,5.9
	l7.99,7.7l3.46,3.53l-4.82,7.78c-0.94,1.44-1.73,2.66-2.45,3.67c-0.36,0.43-1.3,1.66-2.74,3.53c-5.33,6.77-9.29,10.22-11.95,10.22
	C-472.32-766.22-479.66-772.34-492.62-784.51L-492.62-784.51z M-460.44-720.36l15.48-29.16c9.22,17.78,13.82,34.7,13.82,50.62
	l-0.07,6.34c0,1.37-0.29,3.1-0.65,5.11c0,1.51-1.01,5.4-2.88,11.66c-1.15,4.9-2.16,8.5-3.1,10.94l-2.45,7.56
	c-2.45,6.62-5.62,11.66-9.58,15.26c-1.8,1.44-6.77,4.32-15.05,8.64c-1.8,0.65-3.89,1.58-6.26,2.52c-1.87,0.72-3.89,1.51-6.05,2.3
	c-3.74,1.15-6.55,1.73-8.57,1.73c-29.09,0-43.7-11.74-43.7-35.21c0-7.99,1.73-18.58,5.18-31.61c0.72-2.88,1.8-6.05,3.31-9.5
	c0.72-1.8,1.66-3.82,2.66-6.05c1.08-2.23,2.3-4.82,3.82-7.7c5.83-11.59,10.01-17.42,12.53-17.42c0.29-0.94,2.02-2.09,5.18-3.31
	c-6.19,10.01-10.15,16.56-11.81,19.73c-1.44,3.53-2.59,7.34-3.46,11.59c-0.94,4.25-1.37,8.35-1.37,12.38
	c0,20.81,10.66,31.18,31.97,31.18h1.22h1.08c0.79,0,1.73,0,2.74-0.07c1.08-0.07,2.23-0.14,3.53-0.43l3.74-0.36
	c0.94,0,3.24-0.58,6.98-1.73c9.5-1.66,15.19-4.25,17.21-7.63c0-5.54-2.02-13.75-6.05-24.7c-1.58-4.97-3.1-9.07-4.46-12.24
	C-456.84-713.16-458.5-716.62-460.44-720.36z"/>
<path class="st0" d="M-416.02-800.93c0-5.4,0.58-12.74,1.73-22.32c0.58-4.97,1.15-9.14,1.66-12.53c0.36-1.73,0.65-3.1,0.94-4.32
	c0.22-1.15,0.58-2.3,0.94-3.46c4.25,1.73,12.53,8.78,24.7,21.17c4.32,4.68,9.29,11.3,14.83,20.09c2.88,4.68,5.33,8.93,7.27,12.89
	c1.94,3.89,3.53,7.56,4.75,10.94c2.3,6.48,4.03,13.75,5.18,21.82c0.58,4.1,1.01,8.42,1.3,13.03c0.29,4.54,0.5,9.5,0.5,14.76
	c0,5.11-0.36,10.87-1.08,17.14c1.44-0.22,2.81-3.96,4.1-11.16c0.65-5.33,1.08-9.86,1.08-13.68c4.39-6.7,8.21-17.86,11.38-33.41
	c0.72-3.38,1.22-7.27,1.66-11.88c0.22-2.3,0.36-4.61,0.5-6.91c0.07-2.23,0.14-4.68,0.14-7.13v-7.7l-0.14-7.85
	c0-4.32,0.5-8.28,1.66-11.66l1.87-3.67l3.74-6.77c2.74-5.11,4.46-7.78,5.04-8.06l8.57,112.25v2.45c0,1.37,0,2.3,0,2.81
	c0,2.59,2.09,4.54,6.19,5.69h8.57v35.93h-28.37v-2.88v-2.45v-2.09v-1.73v-1.44v-4.75c0-1.73-0.14-3.17-0.43-4.39l-0.36-6.55
	c0-1.08-0.07-2.3-0.22-3.67c-0.22-1.37-0.29-2.23-0.36-2.66l-0.29-10.37c0-1.37-0.07-2.66-0.22-3.89c-0.14-1.22-0.43-2.81-0.79-4.75
	c-0.72-4.9-1.73-8.71-2.95-11.45c-4.61,19.73-7.49,31.46-8.78,35.21c-4.25,12.02-10.3,21.02-18.36,27.14
	c-14.98,10.94-39.02,16.42-72.14,16.42l3.31-3.02l5.69-4.18l17.71-11.3l25.34-15.12c11.88-7.27,18.22-14.83,19.08-22.68l0.43-1.8
	c0-0.58,0-1.22,0-1.87c-0.22-0.65-0.36-1.15-0.43-1.37l-1.08-5.47c-1.15-4.46-2.66-9.14-4.46-13.97c-1.87-4.9-4.25-10.15-7.13-15.84
	c-2.81-5.62-6.41-10.44-10.66-14.54c-0.58,0.79-1.08,2.3-1.51,4.54l-0.79,4.25c-0.07,0.86-0.22,1.3-0.36,1.44l-25.34-19.94
	C-414.79-790.34-416.02-794.74-416.02-800.93z"/>
<path class="st0" d="M-207.58-682.49h-103.39v-35.93h20.52v-9.5c0-6.77,2.3-13.39,7.06-19.66c0.58-1.8,1.44-3.74,2.52-5.69
	c1.15-1.94,2.45-4.03,3.96-5.98c2.88-3.74,6.84-7.85,11.88-12.24c9.79-8.64,17.57-13.03,23.62-13.03c7.85,0,15.84,5.62,24.05,16.78
	c7.56,10.08,11.38,19.87,11.38,29.38l-0.14,2.52c-5.83-7.13-11.66-11.95-17.5-14.4l-3.67-0.94l-6.12-1.3
	c-2.16-0.22-4.25-0.29-6.19-0.29c-1.94-0.07-3.53-0.07-4.68-0.07l-6.12,0.36c-1.15,0-2.23,0.07-3.17,0.29
	c-1.01,0.14-3.02,0.5-6.12,1.08c-7.13,1.15-10.73,2.95-10.73,5.33c0,1.44,2.81,5.54,8.42,12.17c4.61,5.47,8.14,9.22,10.58,11.45
	c1.37,1.15,3.1,2.09,5.11,2.74c1.94,0.72,4.03,1.01,6.12,1.01l48.31-1.22L-207.58-682.49z"/>
<path class="st0" d="M-103.75-809.06c0-1.08,5.76-12.67,17.35-34.7c0,5.11,0.43,8.78,1.3,11.09c0.94,2.38,3.1,4.68,6.55,6.98
	c10.37,7.34,15.7,11.95,16.06,13.82l-13.25,25.92c-2.09,0-3.6-0.43-4.68-1.22l-2.59-1.44c0,3.24-0.43,6.7-1.15,10.37
	c-0.79,3.74-2.02,7.7-3.67,12.02c-3.1,8.57-6.55,15.05-10.37,19.44l3.67,12.82l2.09,7.99l2.45,8.78c0.36,3.1,0.58,6.19,0.58,9.29
	c0,5.54-0.65,14.11-1.87,25.42h-22.25v-30.67c0.29,0,0.58,0,0.86,0c3.67,0,6.48-0.22,8.42-0.72c-0.86-5.4-2.95-10.51-6.12-15.48
	c-1.01,1.66-2.09,3.24-3.17,4.68v-50.4c2.95,4.82,6.05,10.01,9.29,15.77c4.39-10.22,6.62-20.38,6.62-30.38
	c0-5.62-0.65-9.79-1.87-12.46l-2.16-3.31L-103.75-809.06z M-113.54-682.49h-42.12l5.11-18.22l4.82-17.42c2.02,0,4.32-0.65,7.06-1.8
	c1.44-0.72,2.88-1.51,4.18-2.38c1.37-1.01,2.95-2.16,4.68-3.74c2.95-2.52,5.4-4.82,7.13-6.84c2.16-2.3,3.89-4.68,5.18-7.2
	c0-2.02-2.88-6.77-8.64-14.26c-5.83-7.42-9.58-11.16-11.3-11.16l-0.65,1.08l-2.02,3.67c-1.44,2.95-2.52,4.54-3.38,4.75l-6.34-5.62
	l-6.77-5.62c-4.9-3.89-9.43-6.98-13.54-9.22c-3.24-1.51-6.26-4.32-8.93-8.64c-2.74-4.25-4.03-8.5-4.03-12.82
	c0-6.84,3.31-19.37,10.08-37.58c6.41,0,19.22,10.44,38.52,31.39l7.06,8.64c2.52,3.24,4.97,6.7,7.49,10.44
	c2.09,3.1,4.18,6.41,6.41,9.94v50.4c-3.1,4.18-6.19,7.63-9.36,10.3c1.87,0.79,5.04,1.15,9.36,1.22V-682.49L-113.54-682.49z
	 M-175.25-648.07c0-5.83,1.8-11.45,5.47-16.56c3.74-4.61,7.85-6.91,12.31-6.91c1.01,0,2.09,0.58,3.24,1.8
	c1.08,1.15,1.8,2.66,2.16,4.39l-4.1,8.28c-3.31-3.38-5.62-5.18-6.98-5.47c-1.44,0-3.67,1.58-6.84,4.75c3.02,4.46,8.28,6.7,15.91,6.7
	h4.1h4.1h1.44l-1.66,3.67c-0.5,1.22-1.58,3.1-3.17,5.47h-1.3c-5.47,0-13.39,4.25-23.83,12.82c0.72-2.88,4.18-6.98,10.3-12.46
	l-7.63-2.81C-173.88-645.12-175.1-646.34-175.25-648.07z"/>
<path class="st0" d="M-50.69-790.13c0-2.09,2.45-9.07,7.42-20.95c4.46-10.87,7.7-18,9.72-21.38c1.01,0,2.88,17.71,5.69,53.06
	l1.08,20.45l0.36,19.51c0,21.96-4.61,40.82-13.82,56.59L-50.69-790.13z"/>
<path class="st0" d="M15.91-675.14c1.37-1.66,2.81-3.31,4.25-5.11c4.46-5.83,7.99-11.52,10.58-17.14c1.3-2.88,2.23-5.54,2.81-7.85
	c0.58-2.38,0.79-4.82,0.79-7.2c0-2.02-0.22-3.89-0.65-5.47c-1.66,5.26-3.24,9.43-4.68,12.38c-1.44,3.53-2.45,5.69-3.17,6.62
	c-2.23,3.38-5.62,5.54-9.94,6.34v-33.19c0.58,0.14,1.22,0.22,1.94,0.22c1.08,0,2.3-0.29,3.67-0.79c1.37-0.43,2.74-1.51,4.18-3.02
	c0-3.67-0.86-7.27-2.52-10.87c-1.66-3.53-3.82-5.33-6.48-5.33c-0.29,0-0.58,0-0.79,0.07v-30.82c3.02-3.46,5.83-5.18,8.5-5.18
	c5.54,0,10.73,7.49,15.55,22.39c1.58,5.4,2.95,11.09,4.1,17.06c1.15,6.05,1.73,11.23,1.73,15.7c0,9.36-0.79,18.72-2.45,28.15
	c-1.58,9.43-4.1,19.15-7.49,29.23c-5.69,17.21-12.31,28.3-19.94,33.41V-675.14z M5.69-632.3c-6.12,0-15.12-1.37-26.93-4.03
	c-13.1-3.1-21.38-6.34-24.84-9.72c8.21,0,16.27-1.08,24.05-3.31c6.7-1.87,12.82-4.54,18.29-7.92c6.12-3.82,12.67-9.79,19.66-17.86
	v39.6C12.67-633.38,9.29-632.3,5.69-632.3L5.69-632.3z M15.91-692.57c-1.37,0.22-2.81,0.36-4.32,0.36
	c-6.48,0-11.02-3.89-13.54-11.66c-0.5-2.02-0.94-5.11-1.37-9.22s-0.65-8.78-0.65-14.04c0-7.85,3.24-18.65,9.65-32.62
	c3.6-7.42,6.98-12.96,10.22-16.56v30.82c-1.94,0.29-3.89,1.73-5.9,4.18c-2.16,2.45-3.53,5.18-3.96,8.21
	c3.17,4.18,6.48,6.62,9.86,7.34V-692.57z"/>
<path class="st0" d="M146.38-792.22l7.42-15.7l7.92-17.71c0.65,1.44,2.23,10.37,4.68,26.78l6.62,47.81l1.22,9.14l0.5,4.1l0.79,4.68
	c1.22,5.54,3.46,9.72,6.55,12.24c2.59,1.66,6.26,2.45,11.02,2.45h8.42v35.93h-23.76c-6.05,0-10.73-4.03-13.82-12.17
	c-0.58-1.73-2.23-9.36-5.04-23.04c-1.08,0.58-3.53,5.62-7.34,14.98c-2.95,7.42-5.9,11.52-8.86,12.46v-43.78
	c4.03,0.65,8.5,0.94,13.39,0.94c0-1.01-0.43-3.96-1.15-8.78l-3.53-22.18l-0.65,0.86l-3.96,6.12l-3.31,5.47l-0.79,1.08v-25.85
	l5.69-4.32c0-0.79-0.36-2.66-1.08-5.76l-0.65-3.24L146.38-792.22L146.38-792.22z M142.7-813.17v-31.82l14.26,10.44
	C149.9-822.24,145.15-815.11,142.7-813.17z M142.7-690.26c-0.14,0-0.29,0.07-0.43,0.07c-1.66,0-5.54-0.79-11.74-2.52l-11.81-3.24
	l-13.32-2.88c-3.89-0.72-6.55-1.08-8.06-1.08c0-4.75,1.8-13.61,5.47-26.57c3.67-12.82,6.91-21.1,9.72-24.62
	c2.88-3.6,7.63-7.99,14.4-13.18l15.77-12.1v25.85l-1.08,1.44l-1.8,1.58l-4.68,3.38c-2.74,1.94-4.68,4.1-5.83,6.48
	c3.74,1.66,8.21,2.88,13.39,3.6V-690.26L142.7-690.26z M142.7-844.99v31.82c-0.5,0.36-0.86,0.58-1.15,0.58
	c-0.72,0-4.1-2.16-10.08-6.41c-5.98-4.25-9.65-7.13-11.16-8.57L109.3-813.1c-2.52-0.94-6.26-3.17-11.23-6.77l-6.48-4.75
	c-1.3-1.08-2.52-2.45-3.74-4.03c6.05-8.86,11.23-16.06,15.48-21.6c1.01,1.58,4.1,4.39,9.36,8.64l5.83,4.1l2.09,1.15l2.02,0.58
	c0.5,0,2.59-2.3,6.34-7.06l6.55-7.42L142.7-844.99z"/>
<path class="st0" d="M192.82-682.49v-35.93h54.79c-2.23-8.57-4.61-15.84-7.06-21.82c-2.45-5.98-5.33-11.3-8.64-15.98
	c1.73-3.38,3.89-7.92,6.34-13.68l4.54-10.73l3.02-7.56c4.9,9,8.78,16.85,11.59,23.62c2.81,6.77,4.61,12.38,5.4,16.92l0.86,8.42
	l0.58,6.84l-0.14,5.33c0,0.79,0,1.87-0.07,3.1c-0.07,1.3-0.14,2.59-0.36,4.1c0,1.73,0,3.17-0.22,4.32c-0.14,1.15-0.58,3.6-1.3,7.34
	l-3.31,25.7H192.82L192.82-682.49z M229.03-653.26l1.37-1.66l4.03-5.4c3.24-4.46,5.33-7.06,6.19-7.92l19.51,15.98l-2.88,5.11
	l-4.03,6.77c-3.82,6.26-6.19,9.58-7.2,10.01c-1.8-1.37-3.38-2.59-4.82-3.67c-3.24-2.38-7.99-6.19-14.4-11.3
	c-1.66,2.3-3.17,4.46-4.61,6.55c-1.44,2.16-3.17,4.75-5.26,7.92c-1.15-0.29-2.52-1.01-4.32-2.3l-5.98-4.39
	c-4.61-3.67-7.56-6.55-8.78-8.71l4.25-6.98l4.68-7.63l4.68-6.84l3.1,3.38l5.54,5.04C224.64-655.27,227.59-653.26,229.03-653.26z"/>
<path class="st0" d="M277.27-811.44l8.78-15.84l7.56-12.74l6.19,93.02l1.3,22.39c0.43,3.38,1.94,5.47,4.75,6.48h15.98v35.64h-36.29
	l-2.59-36.14L277.27-811.44z"/>
<path class="st0" d="M414.07-682.49H310.68v-35.93h20.45v-9.5c0-6.77,2.38-13.39,7.13-19.66c0.58-1.8,1.37-3.74,2.52-5.69
	c1.08-1.94,2.45-4.03,3.96-5.98c2.88-3.74,6.84-7.85,11.88-12.24c9.72-8.64,17.57-13.03,23.54-13.03c7.85,0,15.91,5.62,24.12,16.78
	c7.56,10.08,11.3,19.87,11.3,29.38l-0.07,2.52c-5.83-7.13-11.66-11.95-17.57-14.4l-3.6-0.94l-6.12-1.3
	c-2.23-0.22-4.32-0.29-6.26-0.29c-1.94-0.07-3.46-0.07-4.61-0.07l-6.12,0.36c-1.15,0-2.23,0.07-3.24,0.29
	c-0.94,0.14-2.95,0.5-6.12,1.08c-7.13,1.15-10.66,2.95-10.66,5.33c0,1.44,2.81,5.54,8.42,12.17c4.61,5.47,8.14,9.22,10.58,11.45
	c1.37,1.15,3.1,2.09,5.04,2.74c2.02,0.72,4.03,1.01,6.19,1.01l48.31-1.22L414.07-682.49z"/>
<path class="st0" d="M514.15-813.1l2.95,14.11l3.96,20.23l4.97,26.28l3.6,19.37c2.23,10.01,4.82,14.98,7.85,14.98h12.67v35.64H522.5
	c-1.73,0-3.6-2.81-5.47-8.5l-3.31-12.17c-0.36,0.22-2.02,3.96-4.9,11.16c-2.38,6.34-4.68,9.5-6.91,9.5h-49.9
	c-1.87,0-3.46-0.79-4.75-2.45c-1.08-1.87-1.66-3.96-1.66-6.34c0-7.49,0.36-14.4,1.15-20.81c0.79-6.41,1.8-12.38,3.17-18
	c0.72-4.54,1.73-8.42,3.1-11.66c1.58-3.96,3.24-6.34,4.9-7.34l-0.72,18.94c0,7.99,2.02,12.02,6.05,12.02h47.3
	c0-1.37,0-2.38-0.07-3.1c-0.07-0.79-0.29-2.38-0.58-4.82l-0.79-6.26l-1.44-8.28l-7.42-35.86l1.51-4.54l4.75-13.18
	C510.77-805.82,513.36-812.16,514.15-813.1z"/>
<path class="st0" d="M597.53-718.42v35.93h-28.8c-2.66,0-4.25-2.23-4.82-6.7l-0.36-16.99l-9.58,23.69h-14.18v-35.93h23.54
	l-8.5-89.21l7.85-18.5l4.97-10.01c1.22-2.45,2.59-4.68,4.1-6.91c1.44,0,2.95,11.74,4.61,35.21c0,5.11,0.5,13.97,1.37,26.64
	l1.66,22.39l0.14,9.29c0,1.66,0,3.31,0,4.97c0.14,1.37,0.29,2.38,0.36,2.88l1.15,14.26c0,3.17,0.58,5.47,1.73,6.91
	c1.15,1.44,2.88,2.09,5.26,2.09H597.53z"/>
<path class="st0" d="M600.84-803.81c9.86-25.34,16.06-38.02,18.72-38.02v3.53c0,1.3,0,2.38,0,3.17c0,1.08,0.07,1.8,0.14,2.3
	c0.07,0.5,0.29,1.15,0.65,1.94c0.79,2.23,2.66,4.97,5.69,8.06c13.68,12.46,21.6,18.72,23.9,18.72l-19.51,31.39l2.09,22.54
	c0.29,3.1,0.43,6.62,0.65,10.58c0.22,3.89,0.29,7.34,0.29,10.37c0,1.37,0,2.74-0.07,4.03c-0.07,1.3-0.22,2.52-0.43,3.74
	c-0.07,1.66-0.14,2.74-0.22,3.31c-0.07,0.5-0.22,1.3-0.43,2.3l-0.94,5.47l-3.24,18.36c-1.08,6.55-3.89,9.79-8.35,9.79
	c-0.72,0-1.22,0-1.44,0H589.9v-35.93h26.35c0.5,0,0.79-1.44,0.79-4.32c0-9.79-1.08-21.82-3.24-35.93
	c-0.79-7.56-2.52-19.66-5.26-36.29l-1.58-1.58l-2.02-2.3L600.84-803.81z"/>
</svg>
